{"title":"The.X.Factor.UK.S10E23.HDTV.x264-GTi.mp4","uid":10719072,"size":549521161,"categoryP":"video","categoryS":"hd___tv_shows","magnet":"?xt=urn:btih:f6e4026cb0b9d1016ad45a3fd3514679cfe82698&amp;dn=The.X.Factor.UK.S10E23.HDTV.x264-GTi.mp4&amp;tr=udp%3A%2F%2Ftracker.openbittorrent.com%3A80&amp;tr=udp%3A%2F%2Fopen.demonii.com%3A1337&amp;tr=udp%3A%2F%2Ftracker.coppersurfer.tk%3A6969&amp;tr=udp%3A%2F%2Fexodus.desync.com%3A6969","seeders":0,"leechers":1,"uploader":"Psiglo","files":1,"time":1407450522,"description":"The.X.Factor.UK.S10E23.HDTV.x264-GTi.mp4\n\nThis might be the only working video file on the web. All other files are corrupted\n\nGeneral\nComplete name : The.X.Factor.UK.S10E23.HDTV.x264-GTi.mp4\nFormat : MPEG-4\nFormat profile : Base Media / Version 2\nCodec ID : mp42\nFile size : 524 MiB\nDuration : 1h 4mn\nOverall bit rate : 1 132 Kbps\nEncoded date : UTC 2013-11-17 02:49:45\nTagged date : UTC 2013-11-17 03:11:11\nWriting application : HandBrake 0.9.9 2013051800\n\nVideo\nID : 1\nFormat : AVC\nFormat/Info : Advanced Video Codec\nFormat profile : &lt;a class=&quot;__cf_email__&quot; href=&quot;/cdn-cgi/l/email-protection&quot; data-cfemail=&quot;4b03222c230b0778657a&quot;&gt;[email&amp;#160;protected]&lt;/a&gt;&lt;script cf-hash='f9e31' type=&quot;text/javascript&quot;&gt;\n/* &lt;![CDATA[ */!function(){try{var t=&quot;currentScript&quot;in document?document.currentScript:function(){for(var t=document.getElementsByTagName(&quot;script&quot;),e=t.length;e--;)if(t[e].getAttribute(&quot;cf-hash&quot;))return t[e]}();if(t&amp;&amp;t.previousSibling){var e,r,n,i,c=t.previousSibling,a=c.getAttribute(&quot;data-cfemail&quot;);if(a){for(e=&quot;&quot;,r=parseInt(a.substr(0,2),16),n=2;a.length-n;n+=2)i=parseInt(a.substr(n,2),16)^r,e+=String.fromCharCode(i);e=document.createTextNode(e),c.parentNode.replaceChild(e,c)}}}catch(u){}}();/* ]]&gt; */&lt;/script&gt;\nFormat settings, CABAC : Yes\nFormat settings, ReFrames : 5 frames\nCodec ID : avc1\nCodec ID/Info : Advanced Video Coding\nDuration : 1h 4mn\nBit rate mode : Variable\nBit rate : 1 000 Kbps\nWidth : 720 pixels\nHeight : 404 pixels\nDisplay aspect ratio : 16:9\nFrame rate mode : Variable\nFrame rate : 25.000 fps\nMinimum frame rate : 8.333 fps\nMaximum frame rate : 25.000 fps\nColor space : YUV\nChroma subsampling : 4:2:0\nBit depth : 8 bits\nScan type : Progressive\nBits/(Pixel*Frame) : 0.138\nStream size : 463 MiB (88%)\nWriting library : x264 core 130 r2273 b3065e6\n\nAudio\nID : 2\nFormat : AAC\nFormat/Info : Advanced Audio Codec\nFormat profile : LC\nCodec ID : 40\nDuration : 1h 4mn\nBit rate mode : Variable\nBit rate : 128 Kbps\nMaximum bit rate : 158 Kbps\nChannel(s) : 2 channels\nChannel positions : Front: L R\nSampling rate : 48.0 KHz\nCompression mode : Lossy\nStream size : 59.2 MiB (11%)\nLanguage : English\nEncoded date : UTC 2013-11-17 02:49:45\nTagged date : UTC 2013-11-17 03:11:11\n","torrent":{"xt":"urn:btih:f6e4026cb0b9d1016ad45a3fd3514679cfe82698","amp;dn":"The.X.Factor.UK.S10E23.HDTV.x264-GTi.mp4","amp;tr":["udp%3A%2F%2Ftracker.openbittorrent.com%3A80","udp%3A%2F%2Fopen.demonii.com%3A1337","udp%3A%2F%2Ftracker.coppersurfer.tk%3A6969","udp%3A%2F%2Fexodus.desync.com%3A6969"],"infoHash":"f6e4026cb0b9d1016ad45a3fd3514679cfe82698","infoHashBuffer":{"type":"Buffer","data":[246,228,2,108,176,185,209,1,106,212,90,63,211,81,70,121,207,232,38,152]},"announce":[],"urlList":[]}}